<svg width="782" height="782" viewBox="0 0 782 782" fill="none" xmlns="http://www.w3.org/2000/svg">
<circle cx="391" cy="391" r="391" fill="#075A5A"/>
<path d="M174 440L391 562V739L174 440Z" fill="#508B8B"/>
<path d="M608.129 440L391 562V739L608.129 440Z" fill="#438282"/>
<path d="M609 397L391 304V43L609 397Z" fill="#438282"/>
<path d="M609 397L391 527V304L609 397Z" fill="#2C7373"/>
<path d="M174 397L391 527L392 304L174 397Z" fill="#1D6969"/>
<path d="M214 474L391 552V719L214 474Z" fill="#85AEAE"/>
<path d="M568 474L391 552V719L568 474Z" fill="#70A0A0"/>
<path d="M213.016 473.775C213.004 473.785 212.695 473.595 212.695 473.595C212.695 473.595 212.956 473.573 213.001 473.659C213.046 473.744 213.028 473.766 213.016 473.775Z" fill="#85AEAE"/>
<path d="M592.02 382.78L391.031 294.5L391 56L592.02 382.78Z" fill="#70A0A0"/>
<path d="M174 397L391 304V43L174 397Z" fill="#508B8B"/>
<path d="M190 383.08L390.989 294.8L391 56L190 383.08Z" fill="#85AEAE"/>
<path d="M593 397.5L391 305V515L593 397.5Z" fill="#4C8888"/>
<path d="M391 119L559.5 395.5L391 319V119Z" fill="#C1DCDC"/>
<path d="M190 397.5L391 305V515L190 397.5Z" fill="#317676"/>
<path d="M391 119L222.5 395.5L391 319L391 119Z" fill="#FEFFFF"/>
<path d="M592.043 382.755C592.053 382.747 592.317 382.921 592.317 382.921C592.317 382.921 592.097 382.93 592.058 382.855C592.02 382.78 592.034 382.762 592.043 382.755Z" fill="#70A0A0"/>
<path d="M391 319L222.5 395.5L391 494V319Z" fill="#6F9F9F"/>
<path d="M391 494V319L559.5 395.5L391 494Z" fill="#A6C4C4"/>
<path d="M391 662.5L221 425L391 527V662.5Z" fill="#FEFEFE"/>
<path d="M391 662.5L562 425L391 527V662.5Z" fill="#C0DBDB"/>
</svg>
